    <svg viewBox="0 0 400 400" xmlns="http://www.w3.org/2000/svg" xmlns:sodipodi="http://sodipodi.sourceforge.net/DTD/sodipodi-0.dtd" preserveAspectRatio="xMidYMid meet" version="1.1" id="modeTemplate">
        <g id="modes" transform="matrix(0.430663, 0, 0, 0.430663, 142.478683, 153.513214)">
            <g id="g-26" transform="matrix(1, 0, 0, 1, -96.262512, 21.620781)">
                <g id="g-27" class="note">
                    <ellipse cx="346.176" cy="15.569" rx="22.2" ry="22.2" />
                    <text x="341.0" y="20.0">1</text>
                </g>
                <g id="g-28" class="note">
                    <ellipse cx="451.176" cy="43.704" rx="22.2" ry="22.2" />
                    <text x="447.0" y="45.0">2</text>
                </g>
                <g id="g-29" class="note">
                    <ellipse cx="528.041" cy="120.569" rx="22.2" ry="22.2" />
                    <text x="525.0" y="124.0">3</text>
                </g>
                <g id="g-30" class="note">
                    <ellipse cx="556.176" cy="225.569" rx="22.2" ry="22.2" />
                    <text x="554.0" y="230.0">4</text>
                </g>
                <g id="g-31" class="note">
                    <ellipse cx="528.041" cy="330.569" rx="22.2" ry="22.2" />
                    <text x="526.0" y="334.0">5</text>
                </g>
                <g id="g-32" class="note">
                    <ellipse cx="451.176" cy="407.434" rx="22.2" ry="22.2" />
                    <text x="449.0" y="410.0">6</text>
                </g>
                <g id="g-33" class="note">
                    <ellipse cx="346.176" cy="435.569" rx="22.2" ry="22.2" />
                    <text x="346.176" y="435.569">7</text>
                </g>
                <g id="g-34" class="note">
                    <ellipse cx="241.176" cy="407.434" rx="22.2" ry="22.2" />
                    <text x="237.0" y="409.0">8</text>
                </g>
                <g id="g-35" class="note">
                    <ellipse cx="164.311" cy="330.569" rx="22.2" ry="22.2" />
                    <text x="160.0" y="335.0">9</text>
                </g>
                <g id="g-36" class="note">
                    <ellipse cx="136.176" cy="225.569" rx="22.2" ry="22.2" />
                    <text x="131.0" y="230.0">10</text>
                </g>
                <g id="g-37" class="note">
                    <ellipse cx="164.311" cy="120.569" rx="22.2" ry="22.2" />
                    <text x="162.0" y="122.0">11</text>
                </g>
                <g id="g-38" class="note">
                    <ellipse cx="241.176" cy="43.704" rx="22.2" ry="22.2" />
                    <text x="237.0" y="48.0">12</text>
                </g>
            </g>
        </g>
        <g id="notes">
            <g class="note-link">
                <path d="M 260.0 173.237 L 285.0 180.0" />
                <text x="277.282" y="172.221">2</text>
            </g>
            <g class="note-link">
                <path d="M 319.0 215.425 L 259.0 174.0" />
                <text x="308.148" y="206.183">3</text>
            </g>
            <g class="note-link">
                <path d="M 332.716 255.486 L 255.525 175.724" />
                <text x="321.421" y="242.238">4</text>
            </g>
            <g class="note-link">
                <path d="M 323.478 296.825 L 253.36 178.063" />
                <text x="318.793" y="287.182">5</text>
            </g>
            <g class="note-link">
                <path d="M 291.655 329.536 L 252.012 178.739" />
                <text x="290.312" y="321.446">6</text>
            </g>
            <g class="note-link">
                <path d="M 250.099 339.759 L 249.766 179.716" />
                <text x="253.368" y="331.873">7</text>
            </g>
            <g class="note-link">
                <path d="M 248.507 179.263 L 208.219 329.767" />
                <text x="212.056" y="325.888">8</text>
            </g>
            <g class="note-link">
                <path d="M 178.468 298.327 L 245.623 178.048" />
                <text x="182.894" y="300.745">9</text>
            </g>
            <g class="note-link">
                <path d="M 166.926 254.279 L 243.955 175.955" />
                <text x="171.894" y="257.745">10</text>
            </g>
            <g class="note-link">
                <path d="M 181.594 214.097 L 241.864 173.237" />
                <text x="177.775" y="204.563">11</text>
            </g>
            <g class="note-link">
                <path d="M 215.0 181.594 L 241.864 173.237" />
                <text x="210.639" y="172.213">12</text>
            </g>
        </g>
    </svg>