<svg>
    <g transform="translate(266.89 23.034)" fill="none" stroke="#000" stroke-opacity=".25098" stroke-width="4">
        <path d="m-266.88 28.967 200-0.0026" />
        <path d="m-266.88 52.963 200 0.0012" />
        <path d="m-266.88 76.961 200.01 0.0031" />
        <path d="m-266.88 100.96 200 1.9e-4" />
        <path d="m-266.88 124.96 200-4e-3" />
    </g>
    <path
        d="m17.683 47.567 0.02746-9.0964 4.3463-1.2831v-18.697h1.9978l0.0027 18.16 6.9995-2.0734v-18.632h1.9992l0.0012 17.996 4.9654-0.8966-0.04128 9.5453-4.9241 1.183 0.0027 13.75-2.0017 0.60041-0.0027-13.841-7.001 1.5717 0.03125 13.696 8.9714-2.0329 4.7698-1.1307-0.04105 10.235-4.7288 1.149 0.0027 17.67-2.0044 1.3e-5 0.0012-17.047-6.9968 1.2777 0.0051 18.777-2.0122-0.0027 0.0027-18.164-4.3672 1.1127 0.04419-9.9437 4.3203-1.3258 0.0012-13.731z" />
    <path
        d="m41.705 83.619 0.02746-9.0964 4.3463-1.2831v-18.697h1.9978l0.0027 18.16 6.9995-2.0734v-18.632h1.9992l0.0012 17.996 4.9654-0.8966-0.04128 9.5453-4.9241 1.183 0.0027 13.75-2.0017 0.60041-0.0027-13.841-7.001 1.5717 0.03125 13.696 8.9714-2.0329 4.7698-1.1307-0.04105 10.235-4.7288 1.149 0.0027 17.67-2.0044 2e-5 0.0012-17.047-6.9968 1.2777 0.0051 18.777-2.0122-3e-3 0.0027-18.164-4.3672 1.1127 0.04419-9.9437 4.3203-1.3258 0.0012-13.731z" />
    <path
        d="m65.844 35.563 0.02746-9.0964 4.3463-1.2831v-18.697h1.9978l0.0027 18.16 6.9995-2.0734v-18.632h1.9992l0.0012 17.996 4.9654-0.8966-0.04128 9.5453-4.9241 1.183 0.0027 13.75-2.0017 0.60041-0.0027-13.841-7.001 1.5717 0.03125 13.696 8.9714-2.0329 4.7698-1.1307-0.04105 10.235-4.7288 1.149 0.0027 17.67-2.0044 1.3e-5 0.0012-17.047-6.9968 1.2777 0.0051 18.777-2.0122-0.0027 0.0027-18.164-4.3672 1.1127 0.04419-9.9437 4.3203-1.3258 0.0012-13.731z" />
    <path
        d="m89.705 71.619 0.02746-9.0964 4.3463-1.2831v-18.697h1.9978l0.0027 18.16 6.9995-2.0734v-18.632h1.9992l1e-3 17.996 4.9654-0.8966-0.0413 9.5453-4.9241 1.183 3e-3 13.75-2.0017 0.60041-3e-3 -13.841-7.001 1.5717 0.03125 13.696 8.9714-2.0329 4.7698-1.1307-0.041 10.235-4.7288 1.149 3e-3 17.67-2.0044 1e-5 1e-3 -17.047-6.9968 1.2777 0.0051 18.777-2.0122-3e-3 0.0027-18.164-4.3672 1.1127 0.04419-9.9437 4.3203-1.3258 0.0012-13.731z" />
    <path
        d="m113.71 107.62 0.0275-9.0964 4.3463-1.2831v-18.697h1.9978l3e-3 18.16 6.9995-2.0734v-18.632h1.9992l1e-3 17.996 4.9654-0.8966-0.0413 9.5453-4.9241 1.183 3e-3 13.75-2.0017 0.60041-3e-3 -13.841-7.001 1.5717 0.0313 13.696 8.9714-2.0329 4.7698-1.1307-0.0411 10.235-4.7288 1.149 3e-3 17.67-2.0044 1e-5 1e-3 -17.047-6.9968 1.2777 5e-3 18.777-2.0122-3e-3 3e-3 -18.164-4.3672 1.1127 0.0442-9.9437 4.3203-1.3258 1e-3 -13.731z" />
    <path
        d="m137.71 59.619 0.0275-9.0964 4.3463-1.2831v-18.697h1.9978l3e-3 18.16 6.9995-2.0734v-18.632h1.9992l1e-3 17.996 4.9654-0.8966-0.0413 9.5453-4.9241 1.183 3e-3 13.75-2.0017 0.60041-3e-3 -13.841-7.001 1.5717 0.0313 13.696 8.9714-2.0329 4.7698-1.1307-0.0411 10.235-4.7288 1.149 3e-3 17.67-2.0044 1.3e-5 1e-3 -17.047-6.9968 1.2777 5e-3 18.777-2.0122-3e-3 3e-3 -18.164-4.3672 1.1127 0.0442-9.9437 4.3203-1.3258 1e-3 -13.731z" />
    <path
        d="m161.71 95.619 0.0275-9.0964 4.3463-1.2831v-18.697h1.9978l3e-3 18.16 6.9995-2.0734v-18.632h1.9992l1e-3 17.996 4.9654-0.8966-0.0413 9.5453-4.9241 1.183 3e-3 13.75-2.0017 0.60041-3e-3 -13.841-7.001 1.5717 0.0313 13.696 8.9714-2.0329 4.7698-1.1307-0.0411 10.235-4.7288 1.149 3e-3 17.67-2.0044 2e-5 1e-3 -17.047-6.9968 1.2777 5e-3 18.777-2.0122-3e-3 3e-3 -18.164-4.3672 1.1127 0.0442-9.9437 4.3203-1.3258 1e-3 -13.731z" />
    <path
        d="m17.873 52.995 2-0.0039 0.0046 36.515c2.2641-1.3434 5.6927-2.5068 8.5019-2.5082 5.3513 0.0572 8.5637 3.592 8.4981 7.9522-2e-3 5.5388-11.172 15.561-19.007 21.559 0.66767-2.0169 1.1615-4.0377 2.0069-6.0546 3.6624-2.9962 7.8203-7.6023 9.0234-10.964 0.47595-1.2729 0.97541-3.1239 0.9697-4.6703 0.0036-1.3211-0.06387-2.657-1.1402-3.6939-0.68309-0.6142-1.5521-1.1382-3.3871-1.1311-2.0478-2e-3 -4.3885 1.7995-5.458 3.4407l-0.0092 17.019-2.0017 6.0559z" />
    <path
        d="m41.844 14.903 2-0.0039 0.0046 36.515c2.2641-1.3434 5.6927-2.5068 8.5019-2.5082 5.3513 0.0572 8.5637 3.592 8.4981 7.9522-2e-3 5.5388-11.172 15.561-19.007 21.559 0.66767-2.0169 1.1615-4.0377 2.0069-6.0546 3.6624-2.9962 7.8203-7.6023 9.0234-10.964 0.47595-1.2729 0.97541-3.1239 0.9697-4.6703 0.0036-1.3211-0.06387-2.657-1.1402-3.6939-0.68309-0.6142-1.5521-1.1382-3.3871-1.1311-2.0478-2e-3 -4.3885 1.7995-5.458 3.4407l-0.0092 17.019-2.0017 6.0559z" />
    <path
        d="m65.998 62.995 2-0.0039 0.0046 36.515c2.2641-1.3434 5.6927-2.5068 8.5019-2.5082 5.3513 0.0572 8.5637 3.592 8.4981 7.9522-2e-3 5.5388-11.172 15.561-19.007 21.559 0.66767-2.0169 1.1615-4.0377 2.0069-6.0546 3.6624-2.9962 7.8203-7.6023 9.0234-10.964 0.47595-1.2729 0.97541-3.1239 0.9697-4.6703 0.0036-1.3211-0.06387-2.657-1.1402-3.6939-0.68309-0.6142-1.5521-1.1382-3.3871-1.1311-2.0478-2e-3 -4.3885 1.7995-5.458 3.4407l-0.0092 17.019-2.0017 6.0559z" />
    <path
        d="m89.998 28.995 2-0.0039 0.0046 36.515c2.2641-1.3434 5.6927-2.5068 8.5019-2.5082 5.3513 0.0572 8.5637 3.592 8.4981 7.9522-2e-3 5.5388-11.172 15.561-19.007 21.559 0.66767-2.0169 1.1615-4.0377 2.0069-6.0546 3.6624-2.9962 7.8203-7.6023 9.0234-10.964 0.47595-1.2729 0.97541-3.1239 0.9697-4.6703 4e-3 -1.3211-0.0639-2.657-1.1402-3.6939-0.68309-0.6142-1.5521-1.1382-3.3871-1.1311-2.0478-2e-3 -4.3885 1.7995-5.458 3.4407l-0.0092 17.019-2.0017 6.0559z" />
    <path
        d="m113.75 76.995 2-0.0039 5e-3 36.515c2.2641-1.3434 5.6927-2.5068 8.5019-2.5082 5.3513 0.0572 8.5637 3.592 8.4981 7.9522-2e-3 5.5388-11.172 15.561-19.007 21.559 0.66768-2.0169 1.1615-4.0377 2.0069-6.0546 3.6624-2.9962 7.8203-7.6023 9.0234-10.964 0.47595-1.2729 0.97541-3.1239 0.9697-4.6703 4e-3 -1.3211-0.0639-2.657-1.1402-3.6939-0.68309-0.6142-1.5521-1.1382-3.3871-1.1311-2.0478-2e-3 -4.3884 1.7995-5.458 3.4407l-9e-3 17.019-2.0017 6.0559z" />
    <path
        d="m138 38.745 2-0.0039 5e-3 36.515c2.2641-1.3434 5.6927-2.5068 8.5019-2.5082 5.3513 0.0572 8.5637 3.592 8.4981 7.9522-2e-3 5.5388-11.172 15.561-19.007 21.559 0.66768-2.0169 1.1615-4.0377 2.0069-6.0546 3.6624-2.9962 7.8203-7.6023 9.0234-10.964 0.47595-1.2729 0.97541-3.1239 0.9697-4.6703 4e-3 -1.3211-0.0639-2.657-1.1402-3.6939-0.68309-0.6142-1.5521-1.1382-3.3871-1.1311-2.0478-2e-3 -4.3884 1.7995-5.458 3.4407l-9e-3 17.019-2.0017 6.0559z" />
    <path
        d="m161.97 87.281 2-0.0039 5e-3 36.515c2.2641-1.3434 5.6927-2.5068 8.5019-2.5082 5.3513 0.0572 8.5637 3.592 8.4981 7.9522-2e-3 5.5388-11.172 15.561-19.007 21.559 0.66768-2.0169 1.1615-4.0377 2.0069-6.0546 3.6624-2.9962 7.8203-7.6023 9.0234-10.964 0.47595-1.2729 0.97541-3.1239 0.9697-4.6703 4e-3 -1.3211-0.0639-2.657-1.1402-3.6939-0.68309-0.6142-1.5521-1.1382-3.3871-1.1311-2.0478-2e-3 -4.3884 1.7995-5.458 3.4407l-9e-3 17.019-2.0017 6.0559z" />
</svg>